<?xml version="1.0" encoding="utf-8"?>
<!-- Generator: Adobe Illustrator 21.0.2, SVG Export Plug-In . SVG Version: 6.00 Build 0)  -->
<svg version="1.1" id="Fire_Incident" xmlns="http://www.w3.org/2000/svg" xmlns:xlink="http://www.w3.org/1999/xlink" x="0px"
	 y="0px" viewBox="0 0 34.6 34.4" style="enable-background:new 0 0 34.6 34.4;" xml:space="preserve">
<style type="text/css">
	.st0{fill:#FFFFFF;stroke:#5599CC;stroke-miterlimit:10;}
	.st1{fill:#5599CC;}
</style>
<polygon class="st0" points="33.9,17.2 17.3,33.7 0.8,17.2 17.3,0.6 "/>
<path class="st1" d="M24.1,12.5c-1,0-1.8,0.8-1.8,1.8c0,1,0.8,1.8,1.8,1.8c1,0,1.8-0.8,1.8-1.8C25.9,13.3,25.1,12.5,24.1,12.5z"/>
<path class="st1" d="M11,12.5c-1,0-1.8,0.8-1.8,1.8c0,1,0.8,1.8,1.8,1.8c1,0,1.8-0.8,1.8-1.8C12.8,13.3,12,12.5,11,12.5z"/>
<path class="st1" d="M17.3,9.2c-1.3,0-2.4,1.1-2.4,2.4c0,1.3,1.1,2.4,2.4,2.4s2.4-1.1,2.4-2.4C19.7,10.3,18.6,9.2,17.3,9.2z"/>
<path class="st1" d="M25.9,23.5h-3.1v-5.1c0-0.7-0.2-1.3-0.5-1.9c0.3-0.1,0.5-0.1,0.8-0.1c1.6,0,2.9,1.1,2.9,2.5V23.5z"/>
<path class="st1" d="M11.8,18.5v5.1H8.7V19c0-1.4,1.3-2.5,2.9-2.5c0.3,0,0.5,0,0.8,0.1C12,17.1,11.8,17.8,11.8,18.5z"/>
<path class="st1" d="M13.6,24.8H21l0-6.6c0-2-1.4-3.7-3.7-3.7c-2.3,0-3.6,1.6-3.6,3.7L13.6,24.8z"/>
</svg>
