<?xml version="1.0" encoding="utf-8"?>
<!-- Generator: Adobe Illustrator 21.0.2, SVG Export Plug-In . SVG Version: 6.00 Build 0)  -->
<svg version="1.1" id="Fire_Incident" xmlns="http://www.w3.org/2000/svg" xmlns:xlink="http://www.w3.org/1999/xlink" x="0px"
	 y="0px" viewBox="0 0 34.6 34.4" style="enable-background:new 0 0 34.6 34.4;" xml:space="preserve">
<style type="text/css">
	.st0{fill:#FFFFFF;stroke:#5599CC;stroke-miterlimit:10;}
	.st1{fill:#5599CC;}
</style>
<polygon class="st0" points="34,17.2 17.5,33.7 0.9,17.2 17.5,0.6 "/>
<path class="st1" d="M24.5,15.5c0-0.2,0-0.3,0-0.4c0-0.1-0.1-0.3-0.1-0.5c-0.1-0.2-0.1-0.4-0.2-0.6c-0.1-0.2-0.2-0.5-0.3-0.7
	c-0.1,0.4-0.2,0.8-0.4,1.1c-0.1,0.3-0.3,0.7-0.4,1c-0.2,0.4-0.4,0.7-0.6,1c-0.2,0.3-0.4,0.5-0.7,0.8c-0.2,0.2-0.5,0.4-0.7,0.6
	c-0.2,0.2-0.5,0.4-0.7,0.6c-0.1-0.1-0.1-0.2-0.2-0.3c-0.1-0.1-0.1-0.2-0.2-0.3c0-0.1-0.1-0.3-0.1-0.4v-0.5c0-0.2,0-0.4,0.1-0.6
	c0.1-0.2,0.1-0.4,0.2-0.6c0.1-0.2,0.1-0.4,0.2-0.7c0.1-0.2,0.2-0.5,0.3-0.8c0.1-0.2,0.2-0.4,0.2-0.6c0-0.2,0-0.3,0-0.5v-0.3
	c0-0.2-0.1-0.4-0.3-0.6c-0.2-0.2-0.4-0.4-0.5-0.6c-0.1-0.2-0.2-0.4-0.4-0.7c-0.2-0.3-0.4-0.5-0.6-0.8c-0.1-0.2-0.2-0.3-0.2-0.3
	c0,0-0.1,0-0.1,0.1c0,0.1,0,0.2,0,0.3c0,0.1,0,0.2,0,0.2c0,0.1,0,0.1,0,0.2c0,0.1,0,0.1,0,0.2c0,0.3,0,0.6-0.1,0.9
	c-0.1,0.3-0.2,0.6-0.3,0.9c-0.1,0.2-0.2,0.5-0.4,0.7c-0.2,0.2-0.4,0.4-0.6,0.6C17.4,14,17.4,14,17.3,14c0,0-0.1,0-0.1,0
	c-0.1,0-0.1,0-0.1,0c0,0,0,0-0.1,0l-0.4-0.4c0-0.1-0.1-0.1-0.2-0.3c-0.1-0.1-0.2-0.3-0.3-0.5c-0.1-0.1-0.1-0.2-0.1-0.4
	c0-0.2,0-0.3,0-0.5l0.1-0.6c0-0.2,0.1-0.5,0.2-0.9c0.1-0.3,0.3-0.6,0.4-0.9c0.2-0.3,0.3-0.6,0.4-0.8c0.1-0.3,0.2-0.5,0.3-0.7
	c0-0.1,0.1-0.1,0.1-0.3c0-0.1,0-0.2,0-0.3c0-0.2,0-0.5-0.1-0.7c-0.1-0.2-0.1-0.4-0.2-0.4c-0.1,0-0.1,0.1-0.2,0.2
	c0,0.1-0.1,0.1-0.1,0.2c-0.1,0.2-0.1,0.3-0.2,0.5c-0.1,0.2-0.1,0.4-0.2,0.6C16.3,8,16.2,8.2,16,8.4c-0.2,0.2-0.3,0.4-0.5,0.6
	c-0.2,0.2-0.3,0.4-0.5,0.6c-0.2,0.3-0.4,0.6-0.7,0.9c-0.2,0.3-0.4,0.5-0.6,0.8c-0.2,0.2-0.4,0.5-0.6,0.7c-0.2,0.2-0.3,0.4-0.4,0.6
	L12.7,13c0,0.2,0,0.4,0.1,0.6c0.1,0.2,0.2,0.4,0.2,0.5c0,0.2,0.1,0.4,0.2,0.6c0.1,0.3,0.3,0.6,0.4,0.9c0.1,0.3,0.2,0.5,0.2,0.8
	c0,0.3,0.1,0.6,0.1,0.9v0.4c0,0,0,0.1,0,0.1c0,0.1,0,0.1-0.1,0.1v0.4l-0.3-0.3c-0.1-0.1-0.2-0.1-0.3-0.2c-0.1-0.1-0.2-0.2-0.4-0.3
	c-0.2-0.1-0.3-0.2-0.4-0.3c-0.1-0.1-0.2-0.1-0.3-0.2c-0.1-0.1-0.1-0.1-0.2-0.2c0,0-0.1-0.1-0.2-0.2c-0.2-0.2-0.3-0.4-0.5-0.6
	c-0.2-0.3-0.4-0.6-0.6-0.9c-0.2-0.3-0.3-0.6-0.4-0.9c-0.1-0.3-0.2-0.5-0.2-0.8c0-0.1,0-0.3-0.1-0.4c0-0.1-0.1-0.1-0.1-0.2
	c-0.1,0.2-0.2,0.4-0.3,0.6c-0.1,0.2-0.2,0.4-0.2,0.6c-0.1,0.2-0.1,0.4-0.2,0.5c-0.1,0.2-0.1,0.5-0.1,0.8c0,0.3,0,0.7,0,1v0.6
	c0.1,0.3,0.1,0.6,0.2,1c0.1,0.4,0.2,0.6,0.2,0.7c0,0.1,0.2,0.4,0.4,0.9c0.2,0.5,0.5,1,0.7,1.4c0.1,0.1,0.1,0.1,0.1,0.2
	c0,0.1,0,0.1,0.1,0.2V22l0,0.7c0.7,0.7,1.3,1.4,2.4,1.9c1,0.5,2.2,0.7,3.6,0.7c1,0,1.9-0.1,2.7-0.4c0.8-0.3,1.6-0.6,2.2-1
	c0.7-0.4,1.2-0.9,1.7-1.4v-1.1l0.1-0.6c0-0.2,0-0.3,0-0.4c0-0.1,0-0.2,0.1-0.3l0.6-2c0.1-0.3,0.2-0.7,0.3-1.1c0-0.4,0.1-0.7,0.1-1.1
	C24.5,15.9,24.5,15.7,24.5,15.5z"/>
</svg>
