<?xml version="1.0" encoding="utf-8"?>
<!-- Generator: Adobe Illustrator 21.0.2, SVG Export Plug-In . SVG Version: 6.00 Build 0)  -->
<svg version="1.1" id="Fire_Incident" xmlns="http://www.w3.org/2000/svg" xmlns:xlink="http://www.w3.org/1999/xlink" x="0px"
	 y="0px" viewBox="0 0 34.6 34.4" style="enable-background:new 0 0 34.6 34.4;" xml:space="preserve">
<style type="text/css">
	.st0{fill:#FFFFFF;stroke:#5599CC;stroke-miterlimit:10;}
	.st1{fill:#5599CC;}
</style>
<polygon class="st0" points="33.9,17.2 17.3,33.7 0.8,17.2 17.3,0.6 "/>
<g>
	<path class="st1" d="M14.9,26.1h0.6c-0.1-0.1-0.2-0.2-0.3-0.3C15.1,25.9,15,26,14.9,26.1z"/>
	<path class="st1" d="M10.9,26.1h0.4c-0.1-0.1-0.3-0.2-0.4-0.3V26.1z"/>
	<path class="st1" d="M23.1,12.7V7.4h-2.3v1.7l-3.5-2.8L8,16.8h2.3V24c0.1,0.2,0.3,0.3,0.5,0.4c0.2,0.1,0.4,0.3,0.6,0.4
		c0.2,0.1,0.9,0.3,1.1,0.4c0.2,0.1-0.2,0,0,0c0.9,0,1.6-0.4,2.2-1.2c0.8,0.8,2,1.2,2.7,1.2c0.8,0,2.1-0.4,2.7-1.2
		c0.6,0.8,1.3,1.2,2.2,1.2c0.7,0,1.4-0.3,2-1v-7.4h2.3L23.1,12.7z"/>
	<path class="st1" d="M23.8,26.1v-0.2c-0.1,0.1-0.2,0.2-0.3,0.2H23.8z"/>
	<path class="st1" d="M19.3,26.1h0.6c-0.1-0.1-0.2-0.2-0.3-0.3C19.5,25.9,19.4,26,19.3,26.1z"/>
</g>
</svg>
