<?xml version="1.0" encoding="utf-8"?>
<!-- Generator: Adobe Illustrator 21.0.2, SVG Export Plug-In . SVG Version: 6.00 Build 0)  -->
<svg version="1.1" id="Fire_Incident" xmlns="http://www.w3.org/2000/svg" xmlns:xlink="http://www.w3.org/1999/xlink" x="0px"
	 y="0px" viewBox="0 0 34.6 34.4" style="enable-background:new 0 0 34.6 34.4;" xml:space="preserve">
<style type="text/css">
	.st0{fill:#FFFFFF;stroke:#5599CC;stroke-miterlimit:10;}
	.st1{fill:#5599CC;}
</style>
<polygon class="st0" points="33.9,17.4 17.3,34 0.8,17.4 17.3,0.9 "/>
<g>
	<polygon class="st1" points="19.7,18.3 15.7,18.3 14,22.6 16.2,22.6 16.2,26.9 20.5,20.4 18.4,20.4 	"/>
	<path class="st1" d="M24.8,12.8c0-0.1-0.1-0.2-0.1-0.3v0h0c-0.5-1.3-1.8-2.3-3.4-2.3c-0.4,0-0.8,0.1-1.2,0.2
		c-0.6-1.7-2.3-2.9-4.3-2.9c-2.3,0-4.1,1.6-4.5,3.7l0,0v0c0,0.2-0.1,0.5-0.1,0.7h0.1v0c0,0,0,0-0.1,0c-1.5,0-2.7,1.2-2.7,2.7
		c0,1.5,1.2,2.7,2.7,2.7h2.9h1.6h3.8h1.6h3.4l0,0c1.3,0,2.3-1,2.3-2.2C27,13.8,26.1,12.8,24.8,12.8z"/>
</g>
</svg>
